Coordinates
version=1
nRows=10
nColumns=23
inDegrees=yes

Units are S.I. units (second, meters, Newtons, ...)
If the header above contains a line with 'inDegrees', this indicates whether rotational values are in degrees (yes) or radians (no).

endheader
time	pelvis_tilt	pelvis_list	pelvis_rotation	pelvis_tx	pelvis_ty	pelvis_tz	hip_flexion_r	hip_adduction_r	hip_rotation_r	knee_angle_r	knee_angle_r_beta	ankle_angle_r	subtalar_angle_r	mtp_angle_r	hip_flexion_l	hip_adduction_l	hip_rotation_l	knee_angle_l	knee_angle_l_beta	ankle_angle_l	subtalar_angle_l	mtp_angle_l
     15.00000000	     -6.27188424	     -3.11517638	     -3.01437023	      2.43316935	      1.02474139	      1.03491068	     33.07180874	      4.77743441	     -8.44329711	     33.10955572	      0.57787076	      5.06445867	      6.86382997	      0.00000000	     -5.30648134	     -3.44107386	     -2.04047296	     72.37850618	      1.26324324	    -13.18410197	     -6.52273021	      0.00000000
     15.00666667	     -6.01152668	     -3.32610986	     -3.10504905	      2.43137880	      1.01996212	      1.03444351	     32.83569867	      5.12085327	     -7.99010012	     35.49368954	      0.61948175	      7.27261530	      5.79197770	      0.00000000	     -3.75893917	     -3.71083040	     -1.63193161	     76.39781382	      1.33339339	    -13.98535599	     -7.81569063	      0.00000000
     15.01333333	     -5.46183444	     -3.74821477	     -3.15998683	      2.42963063	      1.01559681	      1.03402809	     32.09835326	      5.69794990	     -7.57177495	     37.73451425	      0.65859152	      9.72336550	      4.87359220	      0.00000000	     -2.51270962	     -4.27742373	     -1.28985007	     80.24111842	      1.40047171	    -14.54419047	     -8.87587138	      0.00000000
     15.02000000	     -5.46028787	     -3.95165586	     -3.24596271	      2.42750480	      1.01062172	      1.03363887	     31.90737424	      6.17549149	     -6.86318057	     39.96042264	      0.69744095	     12.18036355	      3.66976281	      0.00000000	     -0.53606109	     -4.60751200	     -0.86670046	     84.03736724	      1.46672875	    -14.92638908	    -10.15762826	      0.00000000
     15.02666667	     -5.56658124	     -4.05292662	     -3.31235968	      2.42522809	      1.00590933	      1.03322140	     31.66285647	      6.66448568	     -5.87267790	     41.91368136	      0.73153174	     14.34667575	      2.11210802	      0.00000000	      1.64068794	     -4.88281504	     -0.45721324	     87.63451694	      1.52951086	    -14.99654867	    -11.24585429	      0.00000000
     15.03333333	     -5.54956515	     -4.30243915	     -3.36750725	      2.42293866	      1.00175712	      1.03283940	     31.09676443	      7.27181881	     -5.05217750	     43.57219681	      0.76047830	     16.53140178	      0.95639099	      0.00000000	      3.71634804	     -5.37126527	     -0.05169461	     91.00558724	      1.58834713	    -14.69796920	    -12.08599710	      0.00000000
     15.04000000	     -5.58684405	     -4.49428915	     -3.39630430	      2.42061994	      0.99805568	      1.03241428	     30.42588733	      7.81675207	     -4.22120813	     44.93779390	      0.78431246	     18.53221404	     -0.13370981	      0.00000000	      5.91654733	     -5.82219435	      0.38520112	     94.12578931	      1.64280493	    -14.09904057	    -12.71934933	      0.00000000
     15.04666667	     -5.66417880	     -4.65073473	     -3.41877884	      2.41831785	      0.99488741	      1.03194362	     29.63816549	      8.27921392	     -3.46970058	     46.01586728	      0.80312839	     20.36031449	     -0.95487405	      0.00000000	      8.21981798	     -6.26348147	      0.82349675	     96.97645391	      1.69255842	    -13.26530560	    -13.16484457	      0.00000000
     15.05333333	     -5.77287139	     -4.73999273	     -3.42258816	      2.41613276	      0.99230262	      1.03142438	     28.72561693	      8.60828556	     -2.81073366	     46.80785912	      0.81695126	     22.01377788	     -1.52804291	      0.00000000	     10.60058696	     -6.63368519	      1.27518925	     99.51966065	      1.73694575	    -12.26286932	    -13.43969033	      0.00000000
     15.06000000	     -5.95259861	     -4.73422787	     -3.41299949	      2.41395674	      0.99024563	      1.03087506	     27.75890780	      8.77049278	     -2.25224489	     47.34381746	      0.82630550	     23.45370838	     -1.95092606	      0.00000000	     13.12826287	     -6.91052156	      1.71533546	    101.77961493	      1.77638939	    -11.11948082	    -13.51937087	      0.00000000
